<?xml version="1.0" encoding="utf-8"?>
<!-- Generator: Adobe Illustrator 27.4.1, SVG Export Plug-In . SVG Version: 6.00 Build 0)  -->
<svg version="1.1" id="Layer_1" xmlns="http://www.w3.org/2000/svg" xmlns:xlink="http://www.w3.org/1999/xlink" x="0px" y="0px"
	 viewBox="0 0 262.63 129.51" style="enable-background:new 0 0 262.63 129.51;" xml:space="preserve">
<g>
	<g>
		<path d="M101.19,76.27c1.61-0.97,2.8-2.25,4-3.5c1.49-1.57,2.93-3.19,4.4-4.78c0.18-0.2,0.36-0.57,0.68-0.43
			c0.4,0.18,0.2,0.56,0.15,0.88c-0.12,0.76-0.44,1.44-0.96,2c-3.29,3.54-6.6,7.06-10.46,10.01c-0.76,0.58-1.54,1.15-2.47,1.44
			c-1.28,0.41-1.86-0.07-1.62-1.4c0.32-1.81,1.01-3.51,1.87-5.14c0.26-0.49,0.46-1.02,0.5-1.64c-1.7,1.57-3.38,3.17-5.11,4.71
			c-1.21,1.08-2.46,2.13-3.93,2.85c-0.65,0.32-1.42,0.81-2.09,0.22c-0.63-0.54-0.3-1.33-0.11-2c0.96-3.42,3-6.28,4.77-9.29
			c0.61-1.04,1.25-2.07,1.83-3.12c0.23-0.42,0.54-0.85,0.32-1.51c-1.91,1.37-3.51,2.99-5.03,4.69c-2.67,2.98-5.22,6.05-7.63,9.25
			c-0.85,1.14-1.91,1.97-3.36,2.19c-0.44,0.07-0.96,0.23-1.28-0.21c-0.28-0.38-0.02-0.79,0.13-1.18c0.77-1.98,1.95-3.77,2.85-5.68
			c0.08-0.18,0.26-0.34-0.01-0.69c-1.15,1.31-2.4,2.49-3.67,3.64c-1.24,1.11-2.5,2.21-3.88,3.14c-0.41,0.28-0.85,0.54-1.3,0.73
			c-1.48,0.61-2.06,0.19-1.91-1.38c0.12-1.34,0.61-2.58,1.17-3.8c2.1-4.59,4.73-8.89,7.47-13.11c0.88-1.36,2.01-2.59,3.64-3.12
			c0.52-0.17,1.2-0.51,1.65-0.01c0.47,0.52,0.01,1.12-0.26,1.6c-1.66,3.03-3.37,6.03-5.04,9.05c-0.69,1.24-1.34,2.49-2.01,3.74
			c-0.11,0.21-0.29,0.45-0.06,0.67c0.21,0.2,0.49,0.12,0.69-0.03c0.6-0.44,1.25-0.85,1.77-1.37c2.93-2.91,5.72-5.93,7.82-9.54
			c0.9-1.56,2.02-2.98,3.69-3.8c0.7-0.35,1.65-0.81,2.23-0.25c0.65,0.63-0.2,1.36-0.54,1.96c-1.37,2.43-2.8,4.82-4.19,7.23
			c-0.15,0.26-0.42,0.54-0.17,0.99c2.32-2.48,4.75-4.78,7.3-6.95c1.27-1.08,2.62-2.05,4.05-2.91c0.73-0.44,1.51-0.68,2.21-0.12
			c0.68,0.54,0.19,1.26-0.02,1.84c-0.84,2.32-2.13,4.41-3.36,6.53c-1.07,1.83-2.09,3.69-3.13,5.54c-0.16,0.28-0.4,0.64-0.13,0.91
			c0.33,0.33,0.7,0.04,1.01-0.14c0.18-0.1,0.36-0.22,0.5-0.37c2.9-2.93,5.91-5.77,7.91-9.45c2.56-4.72,5.14-9.42,7.86-14.05
			c0.61-1.04,0.5-1.24-0.69-1.35c-0.54-0.05-1.08-0.01-1.62-0.03c-0.4-0.01-0.95,0.07-0.94-0.51c0.01-0.43,0.43-0.71,0.88-0.74
			c0.75-0.05,1.51-0.14,2.24-0.06c1.33,0.14,2.14-0.39,2.83-1.54c1.18-1.96,2.48-3.86,4.1-5.49c0.36-0.37,0.78-0.99,1.33-0.61
			c0.54,0.37,0.3,1.05,0.09,1.61c-0.62,1.68-1.48,3.26-2.35,4.81c-0.48,0.85-0.21,1.11,0.65,1.1c0.96-0.01,1.92,0,2.87-0.01
			c0.42-0.01,0.91-0.09,0.96,0.51c0.05,0.56-0.32,0.83-0.85,0.85c-1.21,0.05-2.42,0.15-3.62,0.09c-0.95-0.05-1.55,0.22-1.99,1.1
			c-1.8,3.56-3.64,7.11-5.49,10.64c-2.26,4.31-4.79,8.47-6.86,12.88C101.25,74.96,101.01,75.48,101.19,76.27z"/>
		<path d="M197.94,76.31c3.57-2.51,6.01-6.05,9.14-9.09c0.41,1.09,0.11,1.95-0.46,2.63c-3.54,4.23-7.45,8.08-11.93,11.32
			c-0.75,0.54-1.77,1.27-2.63,0.7c-0.95-0.64-0.29-1.77-0.08-2.66c0.34-1.42,1-2.73,1.58-4.06c0.16-0.36,0.44-0.7,0.24-1.35
			c-1.83,2.21-3.97,3.91-6.13,5.58c-1.56,1.2-3.2,2.25-5.17,2.66c-1.72,0.36-2.82-0.36-3.11-2.14c-0.25-1.58-0.07-3.16,0.34-4.7
			c0.07-0.28,0.23-0.54,0.04-0.84c-0.47-0.06-0.61,0.36-0.86,0.61c-2.11,2.2-4.37,4.23-6.88,5.96c-0.75,0.51-1.67,1.2-2.51,0.62
			c-0.85-0.59-0.46-1.67-0.22-2.53c0.87-3.16,2.53-5.96,4.13-8.78c1.27-2.24,2.61-4.46,4.02-6.61c1.03-1.57,2.25-3.02,4.15-3.63
			c0.5-0.16,1.1-0.43,1.51,0.1c0.38,0.49-0.06,0.94-0.28,1.37c-2.11,4.06-4.63,7.9-6.61,12.03c-0.25,0.52-0.95,1.23-0.43,1.65
			c0.61,0.49,1.17-0.35,1.65-0.75c1.99-1.67,3.62-3.67,5.15-5.76c2.05-2.79,4.14-5.55,7.29-7.25c1.78-0.96,3.62-1.68,5.68-1.69
			c1.8-0.01,2.46,0.72,2.08,2.48c-0.39,1.81-1.41,3.29-2.69,4.57c-2.49,2.48-5.28,4.57-8.54,5.98c-1.82,0.79-2.88,3.25-2.3,5.14
			c0.12,0.4,0.38,0.37,0.66,0.4c1.14,0.13,2.14-0.23,3.02-0.93c4.6-3.65,8.74-7.72,11.54-12.97c2.39-4.48,4.84-8.92,7.46-13.27
			c0.64-1.07,0.56-1.22-0.68-1.29c-0.58-0.03-1.17,0-1.75,0c-0.38,0-0.85,0.02-0.9-0.45c-0.04-0.47,0.4-0.76,0.81-0.81
			c0.74-0.1,1.5-0.16,2.24-0.09c1.38,0.14,2.21-0.4,2.89-1.62c0.99-1.78,2.18-3.45,3.55-4.97c0.28-0.31,0.6-0.58,0.91-0.85
			c0.3-0.25,0.66-0.45,1.02-0.22c0.41,0.26,0.39,0.7,0.27,1.12c-0.31,1.17-0.83,2.26-1.42,3.31c-0.39,0.69-0.75,1.39-1.17,2.06
			c-0.59,0.93-0.2,1.18,0.72,1.13c0.96-0.05,1.91-0.12,2.87-0.13c0.34,0,0.89-0.3,0.95,0.42c0.05,0.63-0.28,0.95-0.86,0.99
			c-1.12,0.07-2.25,0.18-3.37,0.11c-1.11-0.07-1.73,0.31-2.26,1.31c-4,7.62-8.07,15.21-12.1,22.82
			C198.14,74.61,197.64,75.28,197.94,76.31z M186.24,71.25c0.11-0.04,0.28-0.07,0.41-0.17c2.64-1.9,4.83-4.18,5.95-7.31
			c0.16-0.44,0.51-1.04-0.02-1.37c-0.57-0.37-1.02,0.19-1.37,0.57c-1.82,1.95-3.38,4.1-4.68,6.42c-0.22,0.4-0.45,0.79-0.63,1.21
			C185.79,70.86,185.72,71.19,186.24,71.25z"/>
		<path d="M151.04,67.22c0.23,1.47-0.27,2.46-1.05,3.31c-3.18,3.48-6.49,6.82-10.25,9.68c-0.73,0.55-1.5,1.04-2.39,1.33
			c-1.44,0.47-1.99,0.01-1.69-1.49c0.26-1.31,0.78-2.54,1.37-3.73c1.69-3.4,3.92-6.48,5.73-9.8c0.16-0.28,0.45-0.51,0.2-0.99
			c-1.61,0.85-2.82,2.16-4.05,3.42c-3.2,3.29-6.15,6.79-8.88,10.47c-0.85,1.15-1.92,1.96-3.32,2.27c-0.42,0.09-0.96,0.28-1.28-0.16
			c-0.26-0.37-0.04-0.81,0.14-1.18c0.87-1.79,1.76-3.58,2.63-5.38c0.15-0.32,0.47-0.59,0.29-1.23c-1.54,2.1-3.53,3.54-5.4,5.1
			c-1.71,1.42-3.49,2.71-5.72,3.18c-1.93,0.41-3.04-0.4-3.26-2.37c-0.27-2.47,0.28-4.82,1.26-7.05c2.22-5.05,5.44-9.24,10.51-11.75
			c1.55-0.77,3.17-1.23,4.93-1.12c1.05,0.07,1.58,0.56,1.59,1.66c0.01,1.41-0.54,2.61-1.35,3.68c-2.55,3.36-5.86,5.76-9.65,7.51
			c-1.93,0.89-2.98,2.77-2.63,4.89c0.1,0.64,0.32,1.05,1.16,0.89c1.04-0.21,2.02-0.51,2.85-1.17c4.28-3.43,8.09-7.31,11.03-11.97
			c0.91-1.45,1.86-2.86,3.16-4c0.74-0.65,1.57-1.11,2.55-1.22c0.99-0.11,1.3,0.28,0.84,1.16c-0.61,1.18-1.35,2.29-2.02,3.44
			c-1.03,1.78-2.05,3.57-3.1,5.39c0.51,0.2,0.66-0.09,0.85-0.28c2.54-2.53,5.09-5.04,7.82-7.35c0.96-0.81,2.02-1.47,3.1-2.09
			c0.68-0.39,1.37-0.46,2-0.01c0.66,0.47,0.32,1.12,0.14,1.71c-0.55,1.85-1.49,3.51-2.47,5.16c-1.42,2.4-2.8,4.82-4.19,7.23
			c-0.13,0.23-0.46,0.49-0.18,0.76c0.26,0.24,0.63,0.16,0.93-0.02c0.73-0.42,1.31-1.02,1.88-1.63c1.64-1.77,3.26-3.56,4.9-5.34
			C150.27,67.83,150.6,67.6,151.04,67.22z M120.29,71.17c0.39,0,0.59,0.06,0.71-0.01c3.22-1.85,5.52-4.45,6.5-8.1
			c0.07-0.27,0.15-0.61-0.19-0.77c-0.43-0.2-0.7,0.12-0.97,0.37C123.76,65.03,121.99,67.97,120.29,71.17z"/>
		<path d="M165.19,63.15c0.69-0.08,0.98-0.59,1.36-0.95c1.06-1.03,2.23-1.88,3.68-2.27c1.31-0.36,2.2,0.14,2.59,1.43
			c0.46,1.55,0.17,3.06-0.21,4.56c-1.46,5.74-4.31,10.62-9.05,14.26c-2.23,1.71-4.75,2.61-7.6,1.77c-0.84-0.25-1,0.3-1.29,0.79
			c-2.83,4.85-5.49,9.8-8.11,14.77c-1.59,3.02-3.27,6-5.47,8.63c-0.59,0.7-1.2,1.39-2,1.87c-0.46,0.28-0.99,0.41-1.42,0.16
			c-0.49-0.29-0.21-0.84-0.1-1.26c0.48-1.87,1.37-3.57,2.26-5.26c4.39-8.32,9.38-16.3,13.95-24.52c2.85-5.13,5.69-10.26,8.58-15.36
			c0.7-1.23,1.58-2.35,2.41-3.49c0.26-0.37,0.61-0.68,0.96-0.97c0.33-0.27,0.75-0.46,1.15-0.19c0.37,0.25,0.29,0.71,0.17,1.04
			c-0.44,1.21-0.93,2.4-1.42,3.59C165.46,62.16,165.19,62.54,165.19,63.15z M168.53,64.63c0.04-0.58,0.01-1.01-0.38-1.16
			c-0.51-0.18-0.84,0.23-1.16,0.55c-4.53,4.43-7.26,10.07-10.35,15.46c-0.44,0.77,0.08,1.35,1.03,1.22
			c1.02-0.14,1.87-0.63,2.61-1.35c3.88-3.72,6.29-8.3,7.97-13.33C168.4,65.52,168.46,64.98,168.53,64.63z"/>
		<path d="M55.01,82.33c-2.6-0.06-5.14-0.41-7.46-1.7c-1.6-0.89-1.99-1.87-1.27-3.51c1.44-3.28,3.13-6.43,5.21-9.36
			c0.14-0.2,0.3-0.4,0.47-0.58c0.44-0.47,1-0.95,1.63-0.63c0.69,0.35,0.27,1.03,0.12,1.56c-0.6,1.99-1.31,3.95-1.48,6.05
			c-0.06,0.7-0.15,1.43-0.03,2.11c0.31,1.73,0.92,3.4,2.76,4.01c1.92,0.63,3.84,0.29,5.42-1.01c3.59-2.96,4.5-6.84,3.61-11.25
			c-0.62-3.07-1.83-5.96-2.74-8.93c-0.63-2.06-1.36-4.11-0.92-6.35c0.37-1.9,1.12-3.6,2.6-4.86c3.75-3.19,8.05-4.4,12.9-3.34
			c2.28,0.5,2.8,1.7,1.84,3.87c-0.71,1.6-1.64,3.09-2.61,4.54c-0.27,0.4-0.59,0.89-1.2,0.65c-0.53-0.2-0.5-0.72-0.48-1.18
			c0.05-1.04,0.14-2.08,0.16-3.12c0.04-2.59-1.43-3.73-3.93-3.1c-2.78,0.7-4.43,2.95-4.26,5.78c0.17,2.87,1.29,5.49,2.16,8.18
			c0.69,2.13,1.47,4.23,1.9,6.45c1.24,6.45-2.4,11.52-7.51,14.1C59.71,81.79,57.44,82.41,55.01,82.33z"/>
		<path d="M81.07,55.66c0.02-1.82,1.22-3.57,2.71-3.93c1.33-0.32,2.25,0.36,2.28,1.7c0.03,1.43-1.4,3.41-2.78,3.84
			C81.78,57.74,81.05,57.2,81.07,55.66z"/>
		<path d="M187.24,53.57c0,1.59-1.53,3.5-3.08,3.82c-0.92,0.19-1.83-0.39-1.96-1.26c-0.2-1.35,1.07-3.65,2.36-4.24
			C186.09,51.17,187.24,51.89,187.24,53.57z"/>
	</g>
</g>
</svg>
